<?xml version="1.0" standalone="no"?>
<!DOCTYPE svg PUBLIC "-//W3C//DTD SVG 20010904//EN"
 "http://www.w3.org/TR/2001/REC-SVG-20010904/DTD/svg10.dtd">
<svg version="1.0" xmlns="http://www.w3.org/2000/svg"
 width="1131.000000pt" height="498.000000pt" viewBox="0 0 1131.000000 498.000000"
 preserveAspectRatio="xMidYMid meet">
<metadata>
Created by potrace 1.13, written by Peter Selinger 2001-2015
</metadata>
<g transform="translate(0.000000,498.000000) scale(0.100000,-0.100000)"
fill="#000000" stroke="none">
<path d="M3890 4905 l0 -65 -320 0 -320 0 0 -220 0 -220 -264 0 c-146 0 -267
-4 -270 -8 -2 -4 -6 -39 -7 -77 -3 -82 15 -91 19 -10 l3 55 259 0 260 0 0
-225 0 -225 -194 1 -195 0 -3 47 -3 47 -303 3 c-263 2 -303 0 -308 -13 -5 -13
-34 -15 -185 -15 l-179 0 0 115 0 115 290 0 290 0 10 26 c11 28 13 123 4 148
-5 14 -49 16 -385 16 l-379 0 0 -1445 c0 -1438 0 -1445 -20 -1445 -18 0 -20
-6 -18 -77 2 -70 2 -72 5 -20 3 41 8 57 18 57 12 0 15 -17 15 -79 0 -93 -1
-92 103 -89 l72 2 -75 6 c-42 4 64 7 243 8 l317 2 0 -141 0 -140 -42 3 c-37 3
-43 6 -42 25 0 13 -3 23 -8 23 -4 0 -8 -12 -8 -26 0 -23 -3 -25 -42 -22 -39 3
-43 6 -46 31 -3 26 -5 27 -63 27 -33 0 -59 -4 -59 -10 0 -13 -173 -13 -186 -1
-5 6 -36 11 -69 13 -57 3 -60 4 -63 31 -5 43 -26 27 -32 -25 l-5 -45 -80 -1
c-44 -1 -86 -1 -92 -2 -16 0 -19 -350 -3 -350 6 0 10 16 10 35 l0 35 135 0
135 0 0 -50 c0 -43 -3 -50 -20 -50 -17 0 -20 -7 -20 -50 0 -42 3 -50 18 -50
17 0 18 -13 18 -180 l1 -180 -43 0 c-24 0 -44 5 -47 13 -4 10 -6 10 -6 0 -1
-7 -5 -13 -11 -13 -6 0 -10 43 -10 110 0 67 4 110 10 110 6 0 10 7 10 15 0 10
-10 15 -30 15 l-30 0 2 -67 1 -68 7 55 c5 45 7 34 8 -57 l2 -113 -65 0 -65 0
0 111 c0 71 4 108 10 104 6 -3 10 3 10 14 0 12 -4 21 -10 21 -5 0 -10 22 -10
50 l0 49 73 4 72 3 -78 2 c-54 1 -83 -2 -92 -11 -14 -14 -26 -147 -13 -147 4
0 9 28 11 63 2 34 4 7 5 -60 l2 -123 -50 0 -50 0 0 -55 0 -55 -100 0 -100 0 0
176 0 175 85 -3 c63 -2 85 0 85 10 0 6 -9 12 -20 12 -15 0 -20 7 -20 25 0 24
-2 25 -75 25 -73 0 -75 -1 -75 -25 0 -21 -5 -25 -30 -25 -35 0 -41 -17 -8 -22
30 -4 39 -75 12 -95 -14 -10 -14 -13 -3 -13 12 0 15 -21 15 -120 l1 -120 -118
0 -118 0 -3 137 c-3 132 -4 138 -24 141 -15 2 -23 -4 -28 -20 -9 -36 -7 -108
4 -108 6 0 10 21 10 47 0 25 2 44 6 41 3 -3 2 -51 -2 -107 l-7 -101 -54 0 -54
0 2 123 2 122 -24 0 -24 0 3 -122 3 -123 -60 0 -61 0 2 154 c1 85 -1 158 -4
161 -11 11 -28 -5 -28 -26 0 -17 -7 -19 -60 -19 l-60 0 2 138 c1 75 3 120 5
100 l4 -38 49 0 49 0 4 38 c2 22 4 11 5 -30 2 -59 5 -68 20 -68 13 0 18 7 18
22 -1 23 1 23 144 25 249 3 220 -3 220 43 l0 40 98 -2 c88 -2 91 -2 25 -5 -93
-5 -95 -23 -3 -23 59 0 72 3 82 20 11 17 24 20 75 20 l63 0 0 205 0 205 -65 0
c-37 0 -65 4 -65 10 0 6 29 10 66 10 36 0 63 3 61 8 -3 4 -37 6 -76 4 l-70 -4
-3 -46 -3 -47 -82 -3 -83 -3 0 -154 0 -155 -260 0 -260 0 0 335 0 335 344 0
c296 0 345 -2 350 -15 4 -11 22 -15 76 -15 90 0 92 18 3 23 -54 2 -46 3 34 5
l102 2 4 -57 c3 -52 3 -50 5 20 l2 77 -480 0 -480 0 0 -570 0 -570 -232 -3
-233 -2 238 -3 c150 -1 237 -6 237 -12 0 -6 -87 -11 -237 -12 l-238 -3 232 -2
233 -3 0 -85 0 -85 980 0 980 0 0 85 0 85 2568 -2 2567 -3 3 -82 3 -83 979 0
980 0 0 85 0 85 800 0 800 0 0 615 0 615 -300 0 -300 0 -2 1128 c-2 620 -2
1250 0 1400 l2 272 300 0 300 0 -2 308 -3 307 -2 -262 c-2 -164 -7 -263 -13
-263 -6 0 -11 99 -12 263 l-3 262 -2 -257 -3 -258 -306 0 -305 0 3 -27 3 -28
-790 -3 c-673 -2 -790 -4 -797 -16 -12 -21 -221 -21 -238 0 -19 22 -1235 21
-1244 -1 -8 -22 -351 -22 -363 0 -7 11 -39 15 -158 17 l-150 3 -3 218 -2 217
-320 0 -320 0 0 65 c0 58 -2 65 -20 65 -18 0 -20 -7 -20 -55 l0 -55 -1062 2
-1063 3 3 32 c5 46 -6 73 -29 73 -17 0 -19 -7 -19 -65z m40 -95 c0 -20 -7 -20
-320 -20 l-320 0 0 -625 0 -625 423 -2 c273 -2 422 -7 422 -13 0 -6 -154 -11
-437 -13 l-438 -2 0 430 0 430 -265 0 c-170 0 -265 4 -265 10 0 6 95 10 265
10 l265 0 0 220 0 220 335 0 c328 0 335 0 335 -20z m342 -230 l-3 -250 45 0
46 0 -2 -67 -2 -68 -3 63 c-2 34 -7 62 -11 62 -4 0 -5 -27 -4 -60 l4 -59 -234
0 -234 0 0 60 0 59 105 -2 c87 -1 97 -2 56 -8 -49 -7 -49 -7 15 -6 63 1 65 2
68 29 3 22 -1 27 -17 27 -12 0 -21 -5 -21 -10 0 -7 -36 -10 -101 -8 l-102 3
-3 35 c-2 19 -1 47 2 63 l6 27 101 -2 c85 -1 94 -2 52 -8 -49 -7 -49 -7 15 -6
l65 1 3 33 c3 27 0 32 -17 32 -12 0 -21 -5 -21 -10 0 -7 -37 -10 -102 -8
l-103 3 -1 63 -1 62 106 -2 c91 -1 98 -2 51 -8 l-55 -7 70 1 c69 1 70 2 73 29
3 22 -1 27 -17 27 -12 0 -21 -4 -21 -10 0 -5 -22 -10 -49 -10 l-49 0 -4 58
c-2 31 -3 60 -1 65 3 4 28 6 56 5 l52 -1 -50 -7 c-50 -7 -50 -7 14 -6 42 1 66
5 69 14 3 9 -18 12 -82 12 -79 0 -86 2 -86 20 0 19 7 20 163 20 l162 0 -3
-250z m548 230 c0 -11 -7 -20 -15 -20 -11 0 -15 -12 -15 -50 0 -27 -4 -50 -10
-50 -5 0 -10 23 -10 50 l0 50 -185 0 -185 0 0 -190 0 -190 185 0 185 0 0 55
c0 30 5 55 10 55 6 0 10 -43 10 -110 0 -67 -4 -110 -10 -110 -5 0 -10 20 -10
45 l0 45 -185 0 -185 0 2 -182 3 -183 160 -3 c206 -4 205 -4 205 53 0 25 5 45
10 45 6 0 10 -42 10 -105 0 -63 -4 -105 -10 -105 -5 0 -10 23 -10 50 l0 50
-185 0 -185 0 0 -190 0 -190 185 0 185 0 0 50 c0 28 5 50 10 50 6 0 10 -28 10
-65 l0 -65 -210 0 -210 0 0 595 0 595 -40 0 c-33 0 -40 3 -40 20 0 19 7 20
265 20 258 0 265 -1 265 -20z m340 -5 c0 -18 5 -25 20 -25 17 0 20 -7 20 -50
0 -38 4 -50 15 -50 12 0 15 -15 15 -75 0 -60 -3 -75 -15 -75 -13 0 -15 -20
-15 -120 0 -98 3 -122 15 -126 11 -5 15 -23 15 -74 0 -51 -4 -69 -15 -74 -13
-5 -15 -69 -15 -491 l0 -485 -35 0 -35 0 0 60 c0 33 -4 60 -10 60 -11 0 -14
-101 -4 -137 l6 -23 267 0 c194 0 270 3 279 12 15 15 17 168 2 168 -6 0 -10
-30 -10 -70 0 -101 -19 -86 -22 18 -3 79 -5 87 -23 87 -18 0 -20 -8 -23 -87
l-3 -88 -174 0 -175 0 0 215 0 215 145 0 145 0 0 -49 0 -50 -42 -4 c-24 -2 0
-3 52 -3 l95 1 3 123 c2 102 0 123 -13 128 -22 9 -22 164 0 164 12 0 15 15 15
79 0 70 2 79 20 84 18 5 20 14 20 81 0 44 -4 76 -10 76 -6 0 -10 -30 -10 -70
0 -40 -4 -70 -10 -70 -6 0 -10 123 -10 349 l0 350 38 3 c30 2 38 7 40 26 3 22
5 22 168 22 l164 0 0 -25 c0 -14 5 -25 10 -25 6 0 10 -20 10 -45 0 -33 -4 -45
-15 -45 -11 0 -15 13 -17 53 l-1 52 -6 -49 c-8 -70 -31 -73 -33 -4 l-1 53 -6
-50 c-4 -37 -11 -51 -23 -53 -15 -3 -18 5 -19 50 0 29 -3 46 -6 38 -2 -8 -10
-26 -16 -39 -12 -24 -12 -23 -18 15 -4 26 -7 6 -8 -58 0 -53 -5 -100 -11 -103
-14 -8 -13 -185 1 -185 6 0 9 -17 7 -42 -2 -35 -7 -43 -28 -49 l-25 -7 28 -1
c25 -1 27 -4 27 -40 0 -33 -4 -40 -22 -43 -21 -3 -23 -9 -26 -75 -2 -56 -6
-73 -17 -73 -8 0 -15 -4 -15 -10 0 -11 1 -11 155 -13 l110 -2 0 -63 c0 -43 4
-62 13 -62 9 0 12 32 12 125 l0 125 290 0 290 0 0 -315 0 -315 -225 0 -225 0
0 55 0 55 -65 0 -65 0 0 75 0 75 -77 -2 -78 -1 65 -7 c57 -6 50 -7 -52 -8
-115 -2 -118 -3 -119 -24 0 -13 0 -152 1 -311 1 -251 -1 -288 -14 -293 -20 -8
-21 -44 -1 -44 12 0 15 -18 15 -105 l0 -105 73 -2 72 -2 -62 -3 c-35 -2 -63
-8 -63 -14 0 -6 29 -9 73 -7 l72 3 3 308 2 307 345 0 345 0 0 -435 0 -435
-341 0 c-286 0 -344 2 -353 14 -13 17 -128 25 -136 10 -3 -5 20 -12 50 -15 30
-3 -48 -5 -175 -5 l-230 1 -5 45 c-4 38 -9 46 -29 48 -15 2 -21 0 -16 -7 3 -6
9 -9 13 -7 4 2 7 -17 7 -44 0 -81 -2 -80 236 -80 l209 0 0 -165 0 -165 -204 0
c-169 0 -206 -3 -216 -15 -18 -22 -250 -22 -250 0 0 13 -74 15 -610 15 l-610
0 -1 108 c0 59 0 137 1 175 l1 67 -395 0 c-389 0 -396 0 -396 20 0 24 15 27
24 5 5 -14 50 -16 363 -15 835 2 853 2 853 -17 1 -16 2 -16 15 1 8 11 15 39
15 63 0 24 5 43 10 43 6 0 10 5 10 10 0 6 -9 10 -19 10 -17 0 -20 -8 -23 -47
l-3 -48 -230 -1 c-126 -1 -213 1 -192 5 96 15 13 22 -276 22 -171 -1 -330 3
-352 9 -25 6 -44 5 -51 -1 -7 -6 -34 -9 -61 -7 l-48 3 -3 418 -2 417 340 0
340 0 0 -298 c0 -218 3 -301 12 -310 15 -15 134 -16 143 -2 4 6 -16 11 -52 12
l-58 1 65 6 65 6 3 102 c2 91 5 103 22 108 26 8 26 35 0 35 -19 0 -20 8 -22
423 l-3 422 -84 3 c-55 2 -88 -1 -95 -9 -8 -8 -8 -13 2 -16 9 -4 12 -57 12
-219 l0 -214 -185 0 -185 0 2 213 3 212 112 3 111 3 4 74 c2 41 0 75 -4 75 -5
0 -8 -27 -8 -60 l0 -60 -36 0 c-48 0 -64 19 -64 75 0 76 -2 75 254 75 139 0
227 4 231 10 10 16 114 12 131 -4 12 -12 14 -77 14 -380 l0 -366 33 -1 c17 0
110 0 205 0 151 0 172 -2 162 -14 -10 -12 -10 -15 -1 -15 8 0 11 -12 9 -32
l-3 -33 -150 -2 c-82 -1 -174 -2 -202 -3 l-53 0 0 -80 c0 -64 -3 -80 -15 -80
-12 0 -15 14 -15 70 0 39 -3 70 -7 70 -5 0 -6 -39 -3 -87 l5 -88 275 0 275 0
3 70 c2 40 8 73 15 77 8 5 6 8 -5 8 -15 0 -18 -9 -18 -60 l0 -60 -35 0 -35 0
0 290 c0 251 -2 290 -15 290 -12 0 -15 16 -15 80 0 64 3 80 15 80 12 0 15 19
15 115 0 94 -3 117 -15 121 -11 5 -15 23 -15 75 0 55 3 69 15 69 13 0 15 21
15 125 0 104 -2 125 -15 125 -12 0 -15 15 -15 75 0 60 3 75 15 75 11 0 15 12
15 50 0 38 4 50 15 50 9 0 15 9 15 25 l0 25 165 0 165 0 0 -25z m540 5 c0 -17
-7 -20 -40 -20 l-40 0 -2 -442 c0 -244 -4 -420 -7 -393 l-6 50 -180 0 -180 0
-3 -188 -2 -187 182 2 183 3 6 50 c6 49 6 49 7 -17 l2 -68 -205 0 -205 0 0
260 c0 167 4 260 10 260 6 0 10 -20 10 -44 0 -31 5 -46 16 -50 20 -8 318 -8
338 0 14 5 16 31 16 185 l0 179 -185 0 -185 0 0 -51 c0 -31 -4 -48 -10 -44
-13 8 -13 225 -1 225 6 0 11 -24 13 -52 l3 -53 180 0 180 0 0 185 0 185 -182
3 -183 2 0 -50 c0 -27 -4 -50 -10 -50 -5 0 -10 23 -10 50 0 43 -3 50 -20 50
-13 0 -20 7 -20 20 0 19 7 20 265 20 258 0 265 -1 265 -20z m1030 -640 l0
-660 -435 0 c-380 0 -435 2 -435 15 0 13 53 15 420 15 l420 0 0 625 0 625
-320 0 c-313 0 -320 0 -320 20 0 20 7 20 335 20 l335 0 0 -660z m-3170 600 c0
-6 26 -9 63 -8 l62 1 -55 7 -55 7 58 1 57 2 0 -65 0 -65 -56 0 c-34 0 -53 4
-49 10 3 6 -1 10 -9 10 -11 0 -16 -9 -16 -30 l0 -30 63 2 62 1 -55 7 c-45 5
-34 7 58 8 69 1 112 -2 112 -8 0 -5 -6 -10 -12 -11 -10 0 -10 -2 0 -6 7 -3 12
-24 12 -54 l0 -49 -104 0 c-59 0 -108 4 -111 10 -13 21 -25 9 -25 -25 l0 -35
63 2 62 1 -55 7 c-45 5 -34 7 58 8 l112 2 0 -65 0 -65 -110 0 c-67 0 -110 4
-110 10 0 6 -5 10 -11 10 -6 0 -9 -12 -7 -27 3 -27 5 -28 63 -29 l60 -1 -50 7
c-41 6 -30 7 58 8 l107 2 0 -61 0 -61 -120 4 c-111 3 -120 2 -120 -15 0 -11 9
-21 20 -24 11 -3 17 -9 14 -14 -3 -5 24 -9 60 -9 l66 0 0 -65 0 -64 -62 -3
-63 -3 -3 -152 -3 -153 -99 0 -100 0 0 280 0 280 -30 0 -31 0 1 260 1 260 115
0 c69 0 114 -4 114 -10z m428 -275 c67 0 122 -3 122 -7 0 -5 -56 -8 -125 -8
l-125 0 0 -144 c0 -132 2 -145 18 -151 11 -3 83 -4 160 -3 78 1 145 -1 148 -4
3 -4 -133 -6 -303 -6 -313 0 -390 4 -163 10 l125 3 5 300 c4 255 5 278 10 155
l5 -145 123 0z m369 163 l-2 -123 -37 -3 -38 -3 0 125 0 126 39 0 39 0 -1
-122z m401 -55 l-3 -178 -172 -3 -173 -2 0 180 0 180 175 0 175 0 -2 -177z
m822 -3 l0 -180 -167 2 -168 3 -3 178 -2 177 170 0 170 0 0 -180z m1110 50 c0
-140 1 -137 -55 -142 l-30 -3 -5 85 -5 85 -6 -87 c-3 -48 -7 -89 -10 -91 -2
-3 -23 -7 -46 -11 l-43 -6 0 55 c0 52 -1 55 -25 55 -23 0 -25 4 -25 45 l0 45
73 2 72 2 -72 3 -73 4 0 44 0 45 125 0 125 0 0 -130z m-220 -150 l0 -60 -280
0 -280 0 0 60 0 60 280 0 280 0 0 -60z m220 -130 l0 -140 -105 0 -105 0 0 40
0 40 50 0 c28 0 50 3 50 8 0 4 -21 7 -47 7 l-48 0 2 69 c2 38 5 71 8 74 3 3
24 6 47 6 l43 1 6 -75 5 -75 2 82 2 82 43 9 c23 6 43 10 45 11 1 1 2 -62 2
-139z m4238 53 c-3 -17 -21 -18 -212 -18 -192 0 -209 1 -212 18 -2 16 14 17
213 17 199 0 214 -1 211 -17z m-8473 -43 c-4 -6 -137 -10 -365 -10 l-360 0 -3
-227 -2 -228 -3 238 -2 237 371 0 c244 0 368 -3 364 -10z m6185 0 c0 -7 -207
-10 -600 -10 -393 0 -600 3 -600 10 0 7 207 10 600 10 393 0 600 -3 600 -10z
m1840 0 c0 -7 -267 -10 -780 -10 -513 0 -780 3 -780 10 0 7 267 10 780 10 513
0 780 -3 780 -10z m-5720 -170 l0 -170 -175 0 -175 0 0 170 0 170 175 0 175 0
0 -170z m820 0 l0 -170 -170 0 -170 0 0 170 0 170 170 0 170 0 0 -170z m-3120
98 c0 -29 -4 -59 -8 -65 -6 -10 -80 -13 -292 -15 l-285 -3 -3 -127 -3 -128
186 0 185 0 0 -70 0 -70 -250 0 -250 0 0 265 0 265 360 0 360 0 0 -52z m4520
-198 l0 -250 -120 0 -120 0 0 250 0 250 120 0 120 0 0 -250z m62 165 c2 -47 7
-86 12 -88 5 -1 8 37 7 86 l-2 87 176 0 176 0 -2 -82 c-1 -46 2 -85 7 -88 5
-3 10 34 12 83 l3 87 69 0 70 0 0 -270 0 -270 90 0 90 0 0 270 0 270 60 0 60
0 0 -275 0 -275 1305 0 c1298 0 1305 0 1305 -20 0 -17 -7 -20 -46 -20 -37 0
-47 -4 -51 -20 -3 -11 -13 -21 -22 -21 -14 -1 -13 -2 2 -6 20 -5 24 -63 5 -64
-10 0 -10 -2 0 -6 6 -2 12 -19 12 -37 0 -29 -3 -32 -32 -34 -45 -4 -49 -12 -5
-12 l37 0 0 -100 0 -100 -37 -2 -38 -1 38 -4 c35 -4 37 -6 37 -39 0 -32 -2
-34 -37 -36 l-38 -1 38 -4 c33 -4 37 -7 37 -34 0 -16 -6 -29 -12 -30 -10 0
-10 -2 0 -6 6 -2 12 -19 12 -37 0 -29 -3 -32 -32 -34 -46 -4 -48 -12 -4 -12
35 0 37 -2 34 -27 -3 -25 -7 -28 -35 -25 -18 2 -33 -1 -33 -6 0 -6 16 -9 35
-7 34 3 35 2 35 -31 0 -31 -3 -34 -30 -34 -16 0 -30 -4 -30 -10 0 -5 13 -7 30
-3 28 5 30 4 30 -26 0 -29 -3 -31 -37 -33 l-38 -1 38 -4 c35 -4 37 -6 37 -39
0 -20 -5 -34 -12 -35 -10 0 -10 -2 0 -6 6 -2 12 -18 12 -34 0 -16 -6 -29 -12
-30 -10 0 -10 -2 0 -6 6 -2 12 -20 12 -39 0 -27 -3 -32 -17 -28 -17 5 -17 5 0
-6 9 -6 17 -22 17 -35 0 -22 -4 -25 -36 -25 -19 0 -33 -4 -30 -8 3 -5 19 -7
36 -4 29 4 30 3 30 -32 0 -34 -2 -36 -34 -36 -26 0 -36 -5 -41 -20 -12 -38 3
-60 41 -60 l34 0 0 -63 c0 -37 -5 -69 -12 -76 -10 -11 -10 -13 0 -7 8 5 12 0
12 -13 0 -18 6 -21 50 -21 43 0 50 -3 50 -20 0 -17 -8 -19 -72 -22 l-73 -3 -3
-92 -3 -93 31 0 30 0 0 -280 0 -280 -115 0 -115 0 0 375 0 375 -410 0 -410 0
0 -375 0 -375 -530 0 -530 0 0 375 0 375 -357 -2 -358 -3 -2 -510 -2 -510
-183 -2 -183 -2 -3 -320 -2 -321 -1090 0 -1090 0 0 80 0 80 183 0 c100 0 544
1 987 3 l805 2 3 553 2 552 -325 0 c-210 0 -325 4 -325 10 0 6 -7 10 -15 10
-8 0 -15 -4 -15 -10 0 -6 -117 -10 -330 -10 l-330 0 0 -220 0 -220 -320 1
-320 0 0 215 0 214 102 0 c56 0 99 3 96 6 -4 3 -49 6 -100 6 l-95 0 1 101 1
102 115 -1 115 0 3 -101 c2 -90 1 -102 -15 -106 -13 -3 -11 -5 7 -6 l25 -1 0
107 0 108 355 0 355 0 0 -48 c0 -26 3 -47 8 -47 4 0 7 23 7 50 l0 50 38 0 c21
0 43 -5 50 -12 9 -9 12 -9 12 0 0 8 17 12 46 12 l46 0 -4 -50 c-1 -28 0 -50 5
-50 4 0 7 23 7 50 l0 50 400 0 400 0 2 418 c2 327 6 416 15 415 16 -4 12 18
-5 32 -18 15 -13 586 6 593 18 6 15 50 -5 54 -15 3 -15 4 1 21 16 15 16 19 2
32 -13 14 -16 64 -15 370 l0 355 24 0 c24 0 24 -2 27 -85z m698 -90 l0 -175
-80 0 -80 0 0 175 0 175 80 0 80 0 0 -175z m890 -95 l0 -270 -375 0 -375 0 0
270 0 270 375 0 375 0 0 -270z m268 215 c-2 -33 1 -54 7 -52 6 1 10 26 10 55
l0 52 293 0 292 0 0 -175 0 -175 -80 0 -80 0 0 -90 0 -90 -218 0 c-121 0 -274
-3 -341 -7 l-122 -6 2 82 c1 45 -1 84 -5 88 -8 9 -8 248 1 256 4 4 5 32 4 62
l-2 55 121 0 122 0 -4 -55z m1542 -119 l0 -175 -52 -3 -53 -3 -3 -94 -3 -94
-91 7 c-50 3 -230 6 -400 6 l-308 0 0 265 0 265 455 0 455 0 0 -174z m-4350
-56 l0 -50 -105 0 -105 0 0 50 0 50 105 0 105 0 0 -50z m-3680 -215 l0 -85
-80 0 -80 0 0 78 c0 43 3 82 7 85 3 4 39 7 80 7 l73 0 0 -85z m2348 -97 l2
-178 -175 0 -175 0 0 180 0 180 173 -2 172 -3 3 -177z m832 2 l0 -180 -170 0
-170 0 0 173 c0 96 3 177 7 180 3 4 80 7 170 7 l163 0 0 -180z m2148 93 l3
-83 -81 0 -80 0 0 85 0 86 78 -3 77 -3 3 -82z m1780 0 l3 -83 -86 0 -85 0 0
85 0 86 83 -3 82 -3 3 -82z m962 2 l0 -85 -64 0 -64 0 -4 78 c-3 42 -3 80 -1
85 2 4 33 7 69 7 l64 0 0 -85z m-7635 -25 l0 -100 -48 0 c-30 0 -46 4 -42 10
3 6 -1 10 -10 10 -9 0 -13 -4 -10 -10 4 -6 -4 -6 -22 1 -19 7 -29 7 -31 0 -2
-6 -22 -11 -44 -11 -31 0 -41 4 -45 20 -6 21 -13 23 -105 20 l-58 -1 0 80 0
81 208 0 207 0 0 -100z m533 -52 l3 -138 -41 0 -40 0 0 133 c0 74 3 137 7 141
4 4 21 6 38 4 l30 -3 3 -137z m-358 12 c0 -29 -5 -50 -11 -50 -6 0 -8 -9 -4
-20 4 -13 2 -20 -7 -20 -9 -1 -8 -4 4 -13 13 -10 16 -32 17 -110 0 -53 -3 -97
-8 -97 -4 0 -8 -13 -8 -30 0 -16 4 -30 8 -30 4 0 8 -45 8 -100 0 -55 -4 -98
-8 -95 -5 3 -9 -11 -8 -30 1 -19 4 -35 8 -35 4 0 8 -45 8 -100 0 -55 -4 -98
-8 -95 -5 3 -9 -11 -8 -30 1 -19 4 -35 8 -35 4 0 8 -43 8 -95 0 -52 -4 -95 -8
-95 -11 0 -8 -63 3 -71 5 -4 6 -14 3 -23 -6 -14 -19 -16 -79 -14 l-73 3 -2
618 -3 617 80 0 80 0 0 -50z m30 -570 c0 -390 -3 -611 -9 -615 -7 -4 -10 209
-10 615 0 380 3 619 9 615 5 -3 9 -251 10 -615z m198 478 l3 -108 -96 0 -95 0
0 110 0 111 93 -3 92 -3 3 -107z m3662 77 c0 -8 7 -15 15 -15 8 0 12 6 9 13
-3 8 5 13 21 15 l25 2 0 -190 0 -190 -119 0 c-114 0 -119 1 -114 20 3 11 12
20 19 20 10 0 13 8 10 24 -2 14 1 27 7 30 7 2 8 5 2 5 -5 0 -16 -3 -24 -8 -12
-8 -12 -12 -2 -25 11 -13 11 -16 -1 -16 -13 0 -15 26 -16 156 -1 86 1 160 4
165 3 5 41 9 85 9 64 0 79 -3 79 -15z m-4362 -32 c3 -10 -38 -13 -183 -13
-107 0 -184 4 -181 9 4 5 -10 5 -32 0 -20 -5 -121 -9 -224 -9 -161 0 -188 2
-188 15 0 13 49 15 402 13 310 -2 402 -6 406 -15z m7961 -770 c-1 -428 -5
-767 -9 -753 -9 29 -13 1437 -4 1493 4 20 8 37 10 37 2 0 4 -350 3 -777z
m-7969 642 c-1 -55 -2 -107 -2 -115 0 -8 0 -60 1 -115 1 -55 2 -106 2 -112 -1
-10 -88 -13 -401 -13 l-400 0 0 230 0 230 401 -2 401 -3 -2 -100z m297 91 c4
-4 8 -265 8 -580 0 -452 -3 -573 -12 -573 -7 0 -13 4 -13 9 0 5 -4 7 -8 4 -5
-3 -8 -62 -7 -133 0 -70 -4 -134 -9 -141 -11 -15 -14 -72 -3 -65 9 6 9 9 11
-147 1 -128 2 -135 21 -135 19 0 20 -8 21 -310 0 -170 2 -316 2 -322 2 -10 45
-13 179 -13 l177 0 -30 -32 -29 -33 35 33 c20 17 44 32 55 32 16 0 13 -6 -16
-37 l-34 -38 40 37 c31 29 49 38 75 38 l34 0 -49 -52 -50 -53 55 52 c54 52 57
53 115 53 l59 0 -74 -77 -75 -78 80 77 80 77 150 3 150 3 1 305 0 304 105 0
104 0 2 -279 c2 -154 3 -292 3 -307 l0 -28 370 0 370 0 2 28 c0 15 0 38 -1 52
-1 20 25 51 122 148 l124 123 1 -123 2 -123 -93 -95 -92 -95 90 88 91 87 1
-57 c1 -57 0 -59 -50 -113 l-52 -55 52 49 51 49 0 -132 -1 -131 -38 0 c-21 0
-41 5 -44 10 -4 6 -11 8 -16 4 -6 -3 -23 -7 -37 -9 -15 -1 -31 -3 -37 -5 -5
-1 -25 -2 -42 -1 -28 1 -33 5 -33 25 0 28 -9 36 -42 36 -12 1 -520 0 -1128 0
-608 -1 -1111 -1 -1117 -1 -10 1 -13 32 -13 121 l0 120 80 0 80 0 0 333 c0
182 0 724 0 1203 0 479 2 873 4 875 8 8 235 3 243 -5z m3251 -58 l3 -47 -113
-4 c-82 -2 -63 -3 70 -5 l182 -2 -2 -52 -2 -53 -3 48 -4 47 -174 0 -174 0 -4
-42 c-2 -24 -2 0 0 52 3 52 7 98 10 103 2 4 50 6 106 5 l102 -3 3 -47z m-2508
-72 c0 -30 3 -61 6 -70 5 -14 -11 -16 -140 -16 -91 0 -146 4 -146 10 0 6 18
10 40 10 l40 0 0 50 0 50 55 0 c30 0 55 5 55 10 0 6 20 10 45 10 l45 0 0 -54z
m-330 -121 l0 -125 -95 0 -95 0 0 125 0 125 95 0 95 0 0 -125z m2840 75 l0
-40 -105 0 -105 0 0 40 0 40 105 0 105 0 0 -40z m-1600 -69 c0 -73 -5 -81 -55
-81 -50 0 -55 8 -55 81 l0 69 55 0 55 0 0 -69z m160 -1 l0 -69 -34 -7 c-19 -3
-48 -3 -65 1 -31 7 -31 7 -31 76 l0 69 65 0 65 0 0 -70z m175 -370 c19 0 35
-4 35 -10 0 -6 -93 -10 -260 -10 -167 0 -260 4 -260 10 0 6 33 10 80 10 l80 0
2 83 2 82 3 -82 4 -83 74 0 75 0 2 83 2 82 3 -82 4 -83 54 0 55 0 2 223 3 222
2 -222 3 -223 35 0z m405 220 l0 -220 188 2 187 3 6 85 5 85 2 -83 c2 -63 6
-84 17 -88 47 -18 -11 -24 -245 -24 -167 0 -260 4 -260 10 0 6 18 10 40 10
l40 0 0 220 c0 140 4 220 10 220 6 0 10 -80 10 -220z m-1950 -285 c0 -270 -3
-415 -10 -415 -7 0 -10 145 -10 415 0 270 3 415 10 415 7 0 10 -145 10 -415z
m820 344 l0 -70 -52 3 -53 3 -3 54 c-4 76 -1 81 58 81 l50 0 0 -71z m1780 -60
l0 -119 68 -2 67 -2 -67 -3 -68 -4 0 -149 0 -150 65 0 c45 0 65 -4 65 -12 0
-10 -20 -12 -75 -10 l-75 4 0 104 c0 86 -3 104 -15 104 -8 0 -15 5 -15 10 0 6
7 10 15 10 13 0 15 26 15 176 0 114 3 173 10 169 6 -4 10 -57 10 -126z m120
61 l0 -70 -55 0 -55 0 0 70 0 70 55 0 55 0 0 -70z m980 -165 l0 -195 -120 0
-120 0 0 194 0 194 120 1 120 2 0 -196z m-3730 -10 l0 -125 -95 0 -95 0 0 125
0 125 95 0 95 0 0 -125z m-705 35 c0 -13 -28 -15 -183 -18 -101 -1 -181 1
-179 6 6 9 -40 8 -50 -1 -3 -4 -93 -7 -200 -7 -187 0 -193 1 -193 20 0 20 5
20 403 18 349 -3 402 -5 402 -18z m1943 -57 l3 -73 -56 0 -55 0 0 69 c0 77 3
81 65 78 l40 -2 3 -72z m140 71 c20 -6 22 -12 22 -75 l0 -69 -65 0 -65 0 0 69
c0 58 3 70 18 74 26 7 65 7 90 1z m-2086 -134 c-1 -57 -4 -84 -12 -82 -7 1 -8
-3 -2 -15 6 -10 11 -67 11 -128 1 -60 4 -111 6 -114 3 -2 0 -10 -6 -18 -9 -10
-88 -13 -405 -13 l-394 0 0 230 0 230 401 -2 401 -3 0 -85z m1558 -81 l0 -140
-52 3 -53 3 -3 124 c-1 69 0 131 2 138 4 8 24 13 56 13 l50 0 0 -141z m1898 4
l-3 -138 -52 -3 -53 -3 0 140 0 141 55 0 56 0 -3 -137z m-2748 -98 l0 -125
-95 0 -95 0 0 125 0 125 95 0 95 0 0 -125z m3729 -155 l1 -221 -117 3 -118 3
-1 218 -1 217 118 0 118 0 0 -220z m-3731 -77 l-3 -98 -92 -3 -93 -3 0 101 0
100 95 0 96 0 -3 -97z m-700 15 c-6 -18 -358 -24 -358 -7 0 8 -4 8 -12 1 -20
-15 -430 -10 -435 6 -4 9 81 12 402 12 321 0 406 -3 403 -12z m-5 -166 c-1
-75 -5 -145 -8 -155 -4 -9 -4 -29 -1 -44 4 -14 7 -94 7 -177 l0 -151 -55 -3
-55 -3 -3 88 -3 88 -90 0 -90 0 -3 -87 -3 -88 -249 0 -250 0 0 335 0 334 403
1 402 0 -2 -138z m4437 -267 l0 -265 -392 2 -393 3 388 2 387 3 0 255 0 254
-112 4 -113 3 118 2 117 2 0 -265z m-3745 224 c4 -11 4 -23 1 -26 -7 -7 13
-33 24 -33 5 0 6 18 3 40 -4 25 -2 40 5 40 6 0 12 -17 14 -37 l3 -38 55 0 55
0 3 38 3 37 49 0 50 0 -2 -37 c-2 -58 1 -83 10 -83 5 0 6 27 4 60 -3 39 -1 60
6 60 6 0 12 -25 14 -57 l3 -58 58 -3 c103 -5 60 -17 -65 -17 -122 0 -122 0
-129 25 l-7 25 -1 -26 c-1 -25 -4 -26 -51 -26 -46 1 -50 2 -50 26 0 31 -5 25
-13 -15 l-6 -30 197 0 c152 1 196 4 194 14 -3 15 -20 14 291 12 l57 0 0 -94 0
-93 -307 -1 c-168 0 -317 4 -330 9 -14 5 -23 5 -23 -1 0 -6 -42 -10 -100 -10
l-99 0 -3 103 -3 102 -75 0 -75 0 -3 -217 c-2 -188 -4 -218 -18 -218 -13 0
-15 28 -12 220 2 121 0 220 -4 220 -5 0 -8 -42 -8 -93 0 -50 -4 -108 -10 -127
-6 -22 -6 -38 0 -44 6 -6 10 -47 10 -93 l0 -83 -40 0 -40 0 0 230 0 230 142
-1 c97 -1 143 2 146 10 3 10 -34 16 -85 14 -7 -1 -13 4 -13 9 0 7 -5 6 -13 -1
-8 -6 -49 -10 -95 -10 l-82 1 0 34 0 34 179 0 c173 0 180 -1 186 -21z m480
-13 c0 -16 5 -31 12 -33 8 -3 10 6 6 31 l-6 36 142 0 141 0 0 -55 0 -55 -51 0
c-31 0 -48 4 -44 10 4 7 -3 7 -19 0 -19 -7 -26 -6 -26 2 0 9 -3 9 -12 0 -19
-19 -85 -15 -97 6 -8 14 -10 14 -11 2 0 -12 -11 -16 -45 -16 l-45 0 0 53 c0
52 1 53 28 51 24 -2 28 -6 27 -32z m3245 -211 l0 -245 -390 0 c-253 0 -390 -4
-390 -10 0 -6 -38 -10 -94 -10 -76 0 -95 3 -100 16 -3 9 -6 123 -6 255 l0 239
490 0 490 0 0 -245z m-3821 -95 l1 -210 -69 0 -70 0 -1 210 -1 210 69 0 69 0
2 -210z m129 -2 c9 -9 12 -9 12 0 0 16 166 17 176 1 4 -8 9 -8 17 0 14 14 64
14 72 1 5 -8 11 -8 20 0 18 15 167 9 172 -7 3 -9 -21 -13 -89 -15 l-93 -3 -3
-92 c-2 -56 -7 -93 -13 -93 -7 0 -10 34 -8 95 2 52 0 98 -4 101 -8 8 -12 -64
-8 -143 2 -51 1 -53 -23 -53 l-26 0 0 95 0 95 -100 0 -100 0 0 -95 c0 -61 -4
-95 -11 -95 -7 0 -10 32 -8 95 2 52 0 98 -4 101 -8 8 -12 -64 -8 -143 l2 -53
-45 0 -46 0 0 110 0 110 53 0 c29 0 58 -5 65 -12z m542 -97 c0 -61 4 -112 9
-115 5 -3 8 43 7 107 l-1 112 79 0 80 0 0 -132 1 -133 -37 0 c-29 0 -36 3 -32
15 7 17 -11 21 -21 5 -4 -6 -15 -8 -26 -5 -11 4 -19 2 -19 -4 0 -6 -15 -11
-34 -11 -43 0 -44 4 -45 143 -2 113 1 127 25 127 11 0 14 -21 14 -109z m-1400
14 l0 -85 -80 0 -80 0 0 78 c0 43 3 82 7 85 3 4 39 7 80 7 l73 0 0 -85z m2850
75 c0 -7 -182 -10 -525 -10 -343 0 -525 3 -525 10 0 7 182 10 525 10 343 0
525 -3 525 -10z m2478 -77 l3 -83 -79 0 -79 0 -1 85 0 86 77 -3 76 -3 3 -82z
m1780 0 l3 -83 -86 0 -85 0 0 85 0 86 83 -3 82 -3 3 -82z m632 -283 l0 -370
-235 0 -235 0 0 290 c0 187 -4 290 -10 290 -6 0 -10 -103 -10 -290 l0 -290
-150 0 -150 0 0 280 0 280 85 0 85 0 0 90 0 90 310 0 310 0 0 -370z m330 285
l0 -85 -70 0 -70 0 0 78 c0 43 3 82 7 85 3 4 35 7 70 7 l63 0 0 -85z m-2220
-57 c0 -68 3 -174 7 -235 l6 -113 -89 -2 -89 -2 85 -6 c49 -4 -57 -7 -247 -8
l-333 -2 0 165 0 165 75 0 75 0 0 80 0 80 255 0 255 0 0 -122z m-4800 22 l0
-90 -90 0 -90 0 0 90 0 90 90 0 90 0 0 -90z m280 0 l0 -90 -90 0 -90 0 0 83
c0 46 3 87 7 90 3 4 44 7 90 7 l83 0 0 -90z m458 18 l3 -68 -76 0 -75 0 0 70
0 71 73 -3 72 -3 3 -67z m490 0 l3 -68 -241 0 -240 0 0 70 0 70 238 -2 237 -3
3 -67z m572 12 c0 -41 4 -60 13 -60 8 0 12 18 12 57 l0 58 48 3 c43 3 49 1 54
-19 l6 -23 8 22 c7 19 16 22 59 22 l50 0 0 -60 c0 -33 3 -60 8 -60 4 0 7 26 7
57 l0 58 129 0 128 0 2 -68 1 -67 -527 0 -528 0 0 70 0 70 265 0 265 0 0 -60z
m708 -12 l3 -68 -86 0 -85 0 0 70 0 71 83 -3 82 -3 3 -67z m-3422 -100 c2 -17
-12 -18 -177 -18 -99 0 -179 4 -179 9 0 5 -16 5 -37 0 -21 -5 -122 -9 -225 -9
-182 0 -188 1 -188 20 0 20 5 20 402 18 373 -3 401 -4 404 -20z m2144 -103 c0
-69 -3 -125 -7 -125 -5 0 -8 -14 -9 -30 -1 -17 3 -30 7 -30 5 0 9 -76 9 -170
l0 -170 -150 0 c-82 0 -150 3 -150 8 0 4 -14 7 -30 8 -17 1 -30 -3 -30 -7 0
-5 -72 -9 -160 -9 l-160 0 0 295 c0 288 0 295 20 295 16 0 20 7 20 30 l0 30
320 0 320 0 0 -125z m289 40 l-1 -80 -81 -85 -82 -85 83 80 c62 60 82 75 82
60 0 -13 -49 -69 -125 -145 l-125 -124 1 149 2 150 71 75 71 75 -71 -68 -71
-68 0 73 -1 73 124 0 124 0 -1 -80z m5501 -195 l0 -280 -35 0 -34 0 -3 276
c-2 152 -1 278 1 280 2 2 19 4 38 4 l33 0 0 -280z m-7937 92 c1 -72 -2 -132
-6 -132 -5 0 -5 -9 -2 -20 4 -12 2 -20 -5 -20 -8 0 -8 -6 0 -20 12 -22 16
-292 5 -310 -4 -6 -148 -10 -401 -10 l-394 0 0 325 0 325 400 -2 401 -3 2
-133z m357 -17 c0 -80 -4 -145 -9 -145 -4 0 -6 -12 -3 -27 3 -16 7 -88 9 -160
4 -129 3 -133 -16 -133 -21 0 -21 4 -21 305 0 298 0 305 20 305 19 0 20 -7 20
-145z m860 -160 l0 -305 -210 0 c-115 0 -210 4 -210 9 0 10 -55 9 -66 -2 -4
-4 -88 -7 -186 -7 l-178 0 0 305 0 305 424 0 425 0 1 -305z m2460 -70 l0 -215
-275 0 -275 0 0 215 0 215 275 0 275 0 0 -215z m270 0 l0 -212 -130 0 -130 1
0 212 0 212 130 -1 130 0 0 -212z m490 0 l0 -215 -240 0 -240 0 0 215 0 215
240 0 240 0 0 -215z m-2002 172 c1 -30 -12 -46 -122 -156 -123 -122 -123 -123
-124 -89 -1 29 12 46 121 156 67 67 122 122 123 122 0 0 1 -15 2 -33z m3205
-94 c-110 -5 -107 -23 3 -23 l87 0 -6 -122 c-4 -68 -7 -140 -7 -160 l0 -38
-330 0 -330 0 0 175 0 175 333 -2 c182 -1 295 -4 250 -5z m2847 -223 c0 -27 3
-30 30 -30 l30 0 0 -485 0 -485 -55 0 -55 0 0 -60 0 -60 -210 0 -210 0 0 470
c0 463 0 470 -20 470 -20 0 -20 -7 -20 -470 l0 -470 -495 0 -495 0 0 558 0
559 113 6 c61 4 284 7 495 7 333 0 382 -2 382 -15 0 -12 -16 -15 -80 -15 -47
0 -80 -4 -80 -10 0 -13 156 -13 181 0 11 6 19 21 19 35 l0 25 235 0 235 0 0
-30z m-9610 0 c0 -7 -160 -10 -460 -10 l-460 0 0 -345 0 -345 63 0 c34 -1 192
0 352 0 159 0 286 -2 283 -5 -3 -4 -126 -6 -272 -6 -147 0 -273 -2 -281 -5
-11 -5 -15 -24 -17 -68 l-1 -61 -6 65 c-4 41 -11 65 -18 66 -7 1 -38 2 -68 3
l-55 1 0 360 0 360 470 0 c307 0 470 -3 470 -10z m7142 -62 c2 -70 2 -71 5
-15 l4 57 102 -2 c73 -1 84 -3 40 -5 -35 -2 -63 -8 -63 -13 0 -16 124 -12 146
5 16 12 76 14 357 15 l337 0 0 -335 0 -335 -260 0 -260 0 0 155 0 154 -82 3
c-81 3 -83 4 -80 27 2 13 1 34 -2 47 -6 23 -10 24 -84 22 -76 -2 -76 -2 -14
-5 82 -5 80 -23 -3 -23 l-65 0 0 -205 0 -205 65 0 c48 0 65 -3 65 -14 0 -16
43 -26 111 -26 74 0 59 19 -18 23 -58 3 -54 3 27 5 l96 2 -4 -40 -4 -40 38 -1
c22 0 104 -1 184 -2 143 -2 145 -2 144 -24 0 -16 5 -23 18 -23 15 0 18 9 20
68 1 41 3 52 5 30 l4 -38 49 0 49 0 4 38 c2 20 4 -25 5 -100 l2 -138 -60 0
c-57 0 -60 1 -60 25 0 16 -6 25 -15 25 -18 0 -19 -20 -15 -198 l2 -122 -61 0
-61 0 2 113 c1 91 3 102 8 57 l7 -55 1 68 2 67 -30 0 c-24 0 -30 -4 -30 -21 0
-11 5 -17 10 -14 6 4 10 -33 10 -103 l0 -110 -65 0 -65 0 2 107 c1 86 2 97 8
56 7 -49 7 -49 6 15 -1 58 -3 65 -22 68 -29 4 -32 -16 -30 -160 l2 -118 -118
0 -118 0 0 120 c0 89 3 120 13 120 9 0 9 2 0 8 -6 4 -13 27 -14 52 -4 43 -2
45 24 48 30 4 27 22 -4 22 -10 0 -20 7 -20 15 -1 8 -2 21 -3 27 -1 10 -21 12
-76 9 -85 -3 -90 -5 -90 -30 0 -10 -10 -22 -22 -27 -16 -5 4 -9 65 -11 l87 -4
0 -174 0 -175 -100 0 -100 0 0 55 0 55 -50 0 -50 0 2 123 c1 67 3 94 5 60 2
-35 7 -63 11 -63 13 0 1 133 -13 147 -9 9 -37 12 -87 11 l-73 -2 68 -3 67 -4
0 -49 c0 -28 -4 -50 -10 -50 -5 0 -10 -9 -10 -21 0 -11 5 -17 10 -14 6 4 10
-33 10 -104 l0 -111 -60 0 -60 0 0 60 c0 33 3 60 8 60 4 0 5 29 4 65 -3 59 -6
65 -25 65 -22 0 -22 -2 -18 -125 l3 -125 -61 0 -61 0 0 60 c0 33 3 60 8 60 4
0 4 35 0 78 -12 134 -10 153 12 159 17 4 20 14 20 54 0 42 -3 49 -20 49 -17 0
-20 7 -20 50 l0 50 135 0 135 0 0 -35 c0 -19 5 -35 10 -35 16 0 13 350 -2 351
-7 0 -50 0 -95 1 l-83 1 0 48 c0 27 -4 49 -10 49 -5 0 -10 -13 -10 -30 l0 -30
-70 0 c-40 0 -70 -4 -70 -10 0 -6 -38 -10 -95 -10 -57 0 -95 4 -95 10 0 6 -24
10 -54 10 -52 0 -55 -1 -58 -27 -3 -26 -7 -28 -50 -31 -48 -3 -48 -3 -49 30
l-1 33 -7 -30 c-5 -27 -10 -30 -49 -33 l-42 -3 0 140 0 141 323 -2 c183 -1
288 -4 242 -8 l-80 -6 88 -2 87 -2 0 85 c0 69 3 85 15 85 12 0 15 -13 15 -55
0 -46 3 -55 18 -54 10 0 12 3 5 6 -9 3 -13 27 -13 69 l0 64 120 0 120 0 2 -72z
m948 -288 c0 -198 -3 -360 -7 -361 -5 0 -35 -1 -68 -2 l-60 -2 -4 -65 -5 -65
-5 65 -6 65 -269 2 c-159 1 -277 -2 -288 -8 -17 -9 -18 0 -18 191 l0 200 -62
2 -63 2 60 3 c33 2 63 10 67 16 4 7 8 -8 9 -33 0 -25 1 -72 2 -105 l2 -60 80
-6 80 -5 -82 -2 -83 -2 0 -90 0 -89 288 -3 c158 -2 317 -2 355 0 l67 3 0 345
0 345 -357 -1 c-550 -1 -563 -1 -563 10 0 7 162 10 465 10 l465 0 0 -360z
m-4822 253 c-3 -17 -28 -18 -333 -21 -181 -1 -335 0 -342 2 -7 3 -10 12 -7 21
5 13 49 15 346 15 318 0 339 -1 336 -17z m682 -303 l0 -320 -180 0 -180 0 0
320 0 319 180 0 180 1 0 -320z m391 178 c0 -79 1 -223 2 -320 l2 -178 -192 0
-193 0 0 320 0 320 190 0 190 0 1 -142z m629 -178 l0 -320 -305 0 -305 0 0
320 0 320 305 0 305 0 0 -320z m590 0 l0 -320 -290 0 -290 0 0 320 0 320 290
0 290 0 0 -320z m-3220 290 c0 -7 -148 -10 -425 -10 -277 0 -425 3 -425 10 0
7 148 10 425 10 277 0 425 -3 425 -10z m-1350 -616 l0 -595 -52 3 c-61 3 -67
21 -11 28 l38 5 2 563 3 562 -285 0 c-247 0 -285 2 -285 15 0 13 39 15 295 15
l295 0 0 -596z m5760 581 c0 -13 -38 -15 -280 -15 l-280 0 0 -565 0 -565 40 0
c29 0 40 -4 40 -15 0 -12 -13 -15 -55 -15 l-55 0 0 595 0 595 295 0 c256 0
295 -2 295 -15z m-600 -390 l0 -265 -180 0 -180 0 0 265 0 265 180 0 180 0 0
-265z m-6242 123 l-3 -73 -52 -3 -53 -3 0 75 0 76 55 0 56 0 -3 -72z m7442 -4
l0 -75 -52 3 -53 3 -3 73 -3 72 56 0 55 0 0 -76z m-5060 1 l0 -26 -297 4
c-164 1 -308 6 -320 9 -13 4 -25 3 -28 -3 -4 -5 -135 -9 -321 -9 l-314 0 0 25
0 25 640 0 640 0 0 -25z m968 3 c-3 -23 -4 -23 -197 -26 -118 -1 -197 1 -201
7 -3 6 -20 7 -45 1 -62 -15 -428 -13 -443 2 -37 37 -26 38 439 38 l450 0 -3
-22z m-2818 -433 l0 -445 40 0 c29 0 40 -4 40 -15 0 -12 -13 -15 -60 -15 l-60
0 0 460 c0 453 0 460 20 460 20 0 20 -7 20 -445z m6310 -15 l0 -460 -60 0
c-47 0 -60 3 -60 15 0 11 11 15 40 15 l40 0 0 445 c0 438 0 445 20 445 20 0
20 -7 20 -460z m-6018 113 l3 -328 58 3 57 4 0 -51 0 -51 -151 0 -150 0 3 47
3 48 55 0 55 0 3 328 2 327 30 0 30 0 2 -327z m5748 7 l0 -320 -30 0 -30 0 0
320 1 320 29 0 30 0 0 -320z m-4190 156 c0 -92 -4 -136 -11 -138 -9 -3 -9 -9
-1 -25 9 -16 9 -23 -1 -27 -9 -5 -9 -7 1 -12 9 -4 12 -48 12 -170 l0 -164
-640 0 -640 0 0 335 0 335 640 0 640 0 0 -134z m60 -201 l0 -335 -25 0 -25 0
0 335 0 335 25 0 25 0 0 -335z m910 200 c0 -74 -4 -135 -8 -135 -4 0 -8 -16
-8 -35 0 -19 4 -35 8 -35 5 0 7 -73 6 -162 l-3 -163 -447 -3 -448 -2 0 335 0
335 450 0 450 0 0 -135z m38 -203 c2 -291 0 -332 -13 -332 -13 0 -15 43 -15
336 0 264 3 335 13 332 9 -4 13 -82 15 -336z m262 113 l1 -225 -125 0 -125 0
-1 225 -1 225 125 0 125 0 1 -225z m-3270 155 l0 -60 -85 0 -85 0 0 60 0 60
85 0 85 0 0 -60z m6740 0 l0 -60 -85 0 -85 0 0 60 0 60 85 0 85 0 0 -60z
m-7120 -85 l0 -95 -55 0 -55 0 0 95 0 95 55 0 55 0 0 -95z m7440 0 l0 -95 -55
0 -55 0 0 95 0 95 55 0 55 0 0 -95z m-7570 -5 l0 -80 -75 0 -75 0 0 80 0 80
75 0 75 0 0 -80z m7750 0 l0 -80 -72 0 -73 0 0 80 0 80 73 0 72 0 0 -80z
m-7140 -45 l0 -35 -135 0 -135 0 0 35 0 35 135 0 135 0 0 -35z m6640 0 l0 -35
-135 0 -135 0 0 35 0 35 135 0 135 0 0 -35z m-7557 -74 c24 -1 27 -5 27 -36
l0 -35 -140 0 -140 0 0 34 c0 30 3 35 28 38 23 3 142 2 225 -1z m8435 0 c18
-1 22 -7 22 -36 l0 -35 -135 0 -135 0 0 34 c0 30 3 35 28 38 23 3 153 2 220
-1z m-1760 -238 l3 -153 -180 0 -180 0 -3 108 c-2 59 -2 128 0 155 l3 47 177
-2 177 -3 3 -152z m1225 -139 l2 -199 133 -3 132 -3 2 143 2 143 3 -142 4
-143 144 0 145 0 2 78 2 77 3 -77 4 -78 64 0 65 0 0 69 c0 38 3 76 6 85 6 14
79 16 743 14 l736 -3 -732 -2 -733 -3 0 -85 0 -85 -672 2 c-370 2 -589 4 -485
5 l187 3 0 50 0 49 -47 4 -48 3 53 2 52 2 0 -55 0 -55 110 0 110 0 0 207 c0
113 2 204 6 201 3 -3 6 -95 7 -204z m-3813 91 l0 -105 -125 0 -125 0 0 105 0
105 125 0 125 0 0 -105z m828 -2 l3 -103 -401 0 -400 0 0 98 c0 54 3 102 7
105 4 4 182 6 397 5 l391 -3 3 -102z m200 84 c2 -9 10 -17 18 -17 15 0 19 15
7 23 -5 2 -3 2 4 1 7 -2 14 0 17 4 2 4 21 7 43 7 31 0 37 -3 35 -17 -2 -10 2
-18 8 -18 6 0 10 -33 10 -85 l0 -85 -90 0 -89 0 -3 58 -3 57 -73 3 -73 3 2 37
c1 20 3 39 5 42 1 3 42 5 91 4 74 0 89 -3 91 -17z m622 -82 l0 -105 -235 0
-235 0 0 105 0 105 235 0 235 0 0 -105z m560 0 l0 -105 -275 0 -275 0 0 98 c0
54 3 102 7 105 3 4 127 7 275 7 l268 0 0 -105z m-5870 -295 l110 0 0 55 0 55
53 -2 52 -2 -47 -3 -48 -4 0 -49 0 -50 188 -3 c103 -1 -113 -3 -480 -5 l-668
-2 0 74 c0 41 4 78 10 81 6 4 10 -22 10 -69 l0 -76 60 0 60 0 2 73 2 72 3 -73
4 -73 147 3 147 3 0 137 c0 75 3 134 8 131 4 -2 7 -65 7 -139 l0 -134 130 0
130 0 2 188 3 187 2 -187 3 -188 110 0z m-690 230 l0 -70 -70 0 -70 0 0 63 c0
35 3 67 7 70 3 4 35 7 70 7 l63 0 0 -70z m8870 0 l0 -70 -70 0 -70 0 0 70 0
70 70 0 70 0 0 -70z m-7540 -45 l0 -55 159 0 160 0 3 53 3 52 43 3 42 3 0
-105 0 -106 -250 0 -250 0 0 105 0 105 45 0 45 0 0 -55z m5751 5 l6 -45 1 46
2 46 150 -1 150 0 2 -50 2 -51 3 53 4 52 45 0 44 0 0 -105 0 -105 -250 0 -250
0 0 106 0 105 43 -3 c42 -3 42 -3 48 -48z m1779 -110 l0 -70 -55 0 -55 0 0 70
0 70 55 0 55 0 0 -70z"/>
<path d="M4710 2714 c0 -8 5 -12 10 -9 6 4 10 -11 11 -37 2 -76 0 -73 48 -70
28 3 46 -1 52 -9 6 -10 18 -10 59 -1 66 15 201 15 252 0 29 -8 41 -9 46 -1 4
7 28 13 52 15 l45 3 3 58 c2 32 7 55 12 52 5 -3 11 -1 15 5 4 6 -5 10 -19 10
-24 0 -26 -3 -26 -50 l0 -50 -257 2 -258 3 2 25 c4 45 -6 70 -27 70 -11 0 -20
-7 -20 -16z"/>
<path d="M4460 4715 c0 -28 -4 -35 -20 -35 -18 0 -20 -7 -20 -80 0 -73 2 -80
20 -80 16 0 20 -7 20 -35 l0 -35 135 0 135 0 0 150 0 150 -135 0 -135 0 0 -35z
m260 -115 l0 -140 -125 0 -125 0 0 140 0 140 125 0 125 0 0 -140z"/>
<path d="M5260 4600 l0 -151 138 3 137 3 0 33 c0 24 4 32 17 32 16 0 18 10 18
79 0 67 -3 80 -17 83 -12 2 -17 13 -18 33 l0 30 -137 3 -138 3 0 -151z m260 0
l0 -141 -122 3 -123 3 -3 138 -3 137 126 0 125 0 0 -140z"/>
<path d="M4460 4334 c0 -17 -6 -28 -20 -31 -18 -5 -20 -14 -20 -95 0 -81 2
-90 19 -95 11 -3 21 -15 23 -27 3 -20 8 -21 133 -21 l130 0 3 148 3 147 -136
0 -135 0 0 -26z m260 -119 l0 -135 -125 0 -125 0 0 135 0 135 125 0 125 0 0
-135z"/>
<path d="M5262 4213 l3 -148 124 -3 c125 -3 158 5 147 35 -3 8 2 13 14 13 19
0 20 7 20 94 0 82 -2 95 -17 98 -11 2 -18 13 -18 28 l0 25 -138 3 -138 3 3
-148z m258 2 l0 -135 -125 0 -125 0 0 135 0 135 125 0 125 0 0 -135z"/>
<path d="M7247 3563 c-4 -3 -7 -253 -7 -555 l0 -548 265 0 265 0 0 555 0 555
-258 0 c-142 0 -262 -3 -265 -7z m511 -325 l-3 -323 -247 -3 -248 -2 0 325 0
325 250 0 250 0 -2 -322z m2 -548 l0 -210 -252 0 -253 0 3 210 3 210 249 0
250 0 0 -210z"/>
<path d="M8350 3015 l0 -555 915 0 914 0 3 448 c2 246 2 495 0 555 l-3 107
-915 0 -914 0 0 -555z m727 3 l3 -538 -362 0 -361 0 6 318 c4 174 7 417 7 540
l0 222 353 -2 352 -3 2 -537z m533 272 l0 -270 -260 0 -260 0 0 270 0 270 260
0 260 0 0 -270z m280 90 l0 -180 -135 0 -135 0 0 180 0 180 135 0 135 0 0
-180z m280 0 l0 -180 -134 0 -135 0 2 73 c1 40 6 72 12 71 14 -1 39 26 31 34
-4 3 -11 0 -15 -7 -15 -24 -24 8 -28 100 l-3 89 135 0 135 0 0 -180z m0 -269
c0 -54 -4 -81 -12 -85 -10 -5 -10 -7 0 -12 8 -4 12 -32 12 -90 l0 -84 -275 0
-275 0 0 175 0 175 275 0 275 0 0 -79z m-560 -366 l0 -265 -260 0 -260 0 0
265 0 265 260 0 260 0 0 -265z m560 -90 l0 -175 -275 0 -275 0 0 175 0 175
275 0 275 0 0 -175z"/>
<path d="M4460 3945 c0 -28 -4 -35 -20 -35 -18 0 -20 -7 -20 -85 0 -78 2 -85
20 -85 16 0 20 -7 20 -35 l0 -35 135 0 135 0 0 155 0 155 -135 0 -135 0 0 -35z
m258 -122 l3 -143 -126 0 -125 0 0 145 0 146 123 -3 122 -3 3 -142z"/>
<path d="M5307 3974 c-4 -4 -7 -74 -7 -156 l0 -149 138 3 137 3 0 150 0 150
-131 3 c-71 1 -133 -1 -137 -4z m253 -149 l0 -145 -125 0 -125 0 0 138 c0 76
3 142 7 145 3 4 60 7 125 7 l118 0 0 -145z"/>
<path d="M477 4003 c-4 -3 -7 -46 -7 -95 l0 -88 90 0 90 0 0 95 0 95 -83 0
c-46 0 -87 -3 -90 -7z m163 -88 l0 -85 -80 0 -80 0 0 78 c0 43 3 82 7 85 3 4
39 7 80 7 l73 0 0 -85z"/>
<path d="M477 2253 c-4 -3 -7 -46 -7 -95 l0 -88 90 0 90 0 0 95 0 95 -83 0
c-46 0 -87 -3 -90 -7z m163 -88 l0 -85 -80 0 -80 0 0 78 c0 43 3 82 7 85 3 4
39 7 80 7 l73 0 0 -85z"/>
</g>
</svg>
